<svg id="SvgjsSvg1048" width="288" height="288" xmlns="http://www.w3.org/2000/svg" version="1.1" xmlns:xlink="http://www.w3.org/1999/xlink" xmlns:svgjs="http://svgjs.com/svgjs"><defs id="SvgjsDefs1049"></defs><g id="SvgjsG1050"><svg xmlns="http://www.w3.org/2000/svg" enable-background="new 0 0 2048 2048" viewBox="0 0 2048 2048" width="288" height="288"><path fill="#ebb39e" d="M1129.61,986.97c-2.81,10.13-5.39,17.47-5,32.83c0.84,31.72,12.69,60.44,24.09,80.78l184.65,184.65H736.79
					l167.91-188.37c2.23-2.5,4.07-5.32,5.48-8.37c8.55-18.48,16.53-43.15,17.2-68.7c0.46-17.37-2.92-24.5-6.12-36.98L1129.61,986.97
					z" class="colorebb39e svgShape"></path><path fill="#7fb8d6" d="M1522.68,1598.19H525.32c-0.12-39.96,0.23-233.77,37.15-352.79c9.08-29.22,19.57-51.43,33.03-71.77
			c7.55-11.42,40.65-59.45,105.27-92.3c60.07-30.54,115.7-31.87,142.43-30.78l56.09,50.03l1.17,1.04l123.55,110.14l124.71-111.19
			h0.01l56.09-50.03c26.72-1.1,82.36,0.24,142.42,30.78c64.63,32.85,97.71,80.88,105.28,92.3c13.45,20.34,23.93,42.55,33.01,71.77
			C1522.45,1364.42,1522.8,1558.23,1522.68,1598.19z" class="colorf7e07f svgShape"></path><path fill="#7fb8d6" d="M748.04 1365.74v232.46H678v-232.46c0-19.34 15.68-35.02 35.02-35.02C732.36 1330.71 748.04 1346.4 748.04 1365.74zM1370 1365.74v232.46h-70.04v-232.46c0-19.34 15.68-35.02 35.02-35.02C1354.34 1330.71 1370 1346.4 1370 1365.74z" class="colorebcd6d svgShape"></path><path fill="#f4baa6" d="M1248.77,700.35c70.18,22.56,33.94,140.27-20.18,149.38c-5.99,28.12-19.68,75.65-53.09,115.2
			c-18.71,22.14-36.77,34.84-41.28,37.94c-9.98,6.86-31.31,21.24-62.95,28.71c-8.39,1.98-40.81,8.98-81.53,0
			c-7.9-1.74-45.33-10.53-82.56-41.02c-9.5-7.78-44.9-38.2-63.99-91.27c-6.18-17.19-9.93-37.67-11.35-48.2
			c-55.36-16.07-91.38-98.07-30.95-150.83l13.99-146.93l218.75-54c0,0,121.28,30.65,123.47,33.57S1248.77,700.35,1248.77,700.35z" class="colorf4baa6 svgShape"></path><path fill="#784132" d="M1083.46,577.17c-4.66,7.67-12.69,18.48-25.8,26.66c-11.19,6.98-22.5,9.82-33.47,10.89
			c-11.55,1.13-23.19,0.07-34.54-2.39c-11.06-2.39-33.49-5.06-74.43-2.23c-23.79,1.64-49.2,2.94-70.68,14.39
			c-27.39,14.6-37.1,44.91-42.33,73.45c-0.21,1.15-0.88,2.64-2.02,2.39c-0.48-0.11-0.83-0.52-1.13-0.92
			c-8.31-11.03-10.17-28.9-11.63-42.14c-4.64-42.19-4.16-75.62-0.18-85.11c2.41-5.73,14.6-33.75,43.34-61.53
			c46.47-44.91,123.01-68.43,161.95-76.51c31.53-6.55,64.87-9.87,97.45-7.6c18.16,1.26,37.18,3.58,54.84,8.05
			c14.51,3.67,28.89,10.63,37.61,22.8c9.39,13.11,11.66,29.67,22.9,41.68c12.27,13.11,29,20.93,41.55,33.73
			c16.79,17.12,33.5,44.06,35.92,68.21c2.18,21.76-7.36,42.3-18.34,60.43c-2.03,3.35-13.73,41.02-15.71,38.94
			c-4.54-4.79-61.95-20.22-107.52-76.01c-10.79-13.21-15.55-18.94-19.61-22.9c-2.71-2.65-11.07-10.57-23.39-19.14
			C1094.26,579.52,1085.75,573.3,1083.46,577.17L1083.46,577.17z" class="color784132 svgShape"></path><path fill="#33444d" d="M1313.11,1135.45H734.89c-22.09,0-40,17.91-40,40v374.3h658.22v-374.3
				C1353.11,1153.36,1335.2,1135.45,1313.11,1135.45z" class="color33444d svgShape"></path><path fill="#465a65" d="M1328.36,1598.19H719.64c-42.61,0-77.14-34.54-77.14-77.14v-11.3h763v11.3
				C1405.5,1563.66,1370.96,1598.19,1328.36,1598.19z" class="color465a65 svgShape"></path><path fill="#cfd8dd" d="M950.3 1387.64c-2.63 0-5.29-.83-7.55-2.56l-68.86-52.59c-3.08-2.35-4.89-6.01-4.89-9.89 0-3.88 1.81-7.54 4.89-9.89l68.86-52.59c5.46-4.17 13.27-3.13 17.45 2.34 4.17 5.46 3.13 13.27-2.34 17.45l-55.91 42.7 55.91 42.7c5.46 4.17 6.51 11.98 2.34 17.45C957.75 1385.96 954.04 1387.64 950.3 1387.64zM1097.7 1387.64c-3.75 0-7.45-1.69-9.9-4.89-4.17-5.46-3.13-13.27 2.34-17.45l55.91-42.7-55.91-42.7c-5.46-4.17-6.51-11.98-2.34-17.45 4.17-5.46 11.98-6.51 17.45-2.34l68.86 52.59c3.08 2.35 4.89 6.01 4.89 9.89 0 3.88-1.81 7.54-4.89 9.89l-68.86 52.59C1103 1386.81 1100.34 1387.64 1097.7 1387.64zM1001.51 1415.57c-1.11 0-2.24-.15-3.36-.46-6.62-1.85-10.49-8.72-8.64-15.34l45-161.03c1.85-6.62 8.72-10.49 15.34-8.64 6.62 1.85 10.49 8.72 8.64 15.34l-45 161.03C1011.95 1411.97 1006.95 1415.57 1001.51 1415.57z" class="colorcfd8dd svgShape"></path><g fill="#000000" class="color000 svgShape"><path fill="#3289b5" d="M1768,1622.19H280c-13.25,0-24-10.75-24-24s10.75-24,24-24h1488c13.25,0,24,10.75,24,24
			S1781.25,1622.19,1768,1622.19z" class="colorffa96b svgShape"></path></g></svg></g></svg>